<svg width="214" height="390" viewBox="0 0 214 390" fill="none" xmlns="http://www.w3.org/2000/svg">
<path d="M195.967 179.944L195.967 179.92L195.967 179.896C195.882 175.368 194.899 172.672 193.568 170.077C193.233 169.424 192.888 168.796 192.537 168.156C191.511 166.289 190.434 164.329 189.414 161.392L189.41 161.38L189.405 161.368C188.435 158.721 187.206 156.787 185.771 155.265C184.345 153.753 182.765 152.703 181.186 151.777C180.645 151.46 180.107 151.157 179.569 150.855C176.937 149.376 174.342 147.918 171.779 144.911L171.758 144.887L171.737 144.865C167.499 140.292 164.441 135.199 161.608 129.847C160.735 128.198 159.877 126.512 159.01 124.808C157.093 121.037 155.131 117.179 152.859 113.445L152.851 113.432L152.843 113.419C148.953 107.305 144.204 103.778 140.007 100.659C139 99.9114 138.025 99.1872 137.101 98.4565C134.688 96.547 132.583 94.5819 130.938 92.0111C129.302 89.4542 128.07 86.2188 127.528 81.717C127.203 78.5943 127.593 75.3412 128.251 71.995C128.579 70.3226 128.97 68.6507 129.365 66.9676L129.382 66.8913C129.769 65.2426 130.158 63.5807 130.48 61.9452C131.779 55.3504 132.113 48.5907 126.374 43.3313C124.102 41.2269 123.301 38.5931 122.376 35.549L122.372 35.5356C121.473 32.5755 120.444 29.1986 117.356 26.6408C114.319 24.1086 110.658 21.3797 106.684 19.8158C102.67 18.2366 98.2307 17.8093 93.805 20.0531C86.5647 23.6389 82.5779 31.5723 81.7082 39.0714C81.3032 42.1956 81.3655 45.3963 81.4246 48.4319C81.4393 49.1885 81.4538 49.9349 81.4609 50.6673C81.497 54.4194 81.3436 57.8749 80.2234 61.0327L80.217 61.0505L80.2111 61.0686C79.1813 64.2228 77.3621 66.89 75.1771 69.5335C74.2625 70.64 73.3016 71.7221 72.3122 72.836C72.1162 73.0568 71.919 73.2787 71.7209 73.5024C70.5393 74.8364 69.3333 76.2194 68.1923 77.6884C61.6856 85.362 60.491 95.8652 63.9206 105.096C63.9208 105.096 63.9209 105.096 63.921 105.097L63.9895 105.283L63.9956 105.299L64.002 105.315C66.1151 110.663 68.4786 116.259 71.6311 121.219L71.6498 121.248L71.6697 121.277C73.4603 123.825 75.8789 125.488 78.4228 126.747C80.3195 127.686 82.3801 128.441 84.3334 129.157C84.9576 129.386 85.5709 129.611 86.1643 129.836L86.1778 129.841L86.1914 129.846C89.3298 130.97 92.172 131.997 94.4551 133.442L94.492 133.465L94.5302 133.486C97.5777 135.175 98.8224 137.999 99.7218 141.545C99.946 142.429 100.144 143.337 100.347 144.274L100.375 144.406C100.567 145.293 100.765 146.207 100.988 147.111C101.453 148.993 102.05 150.921 103.026 152.687C104.347 155.386 106.203 157.806 107.939 160.071C108.157 160.355 108.373 160.637 108.586 160.917C110.549 163.494 112.269 165.913 113.197 168.617C116.483 178.363 110.381 189.157 101.665 194.484L101.66 194.487C94.5922 198.846 86.4678 200.861 78.104 202.936C77.0952 203.186 76.0828 203.437 75.0685 203.694C65.7582 206.045 56.3281 208.821 48.7022 215.544C41.1107 221.841 37.6172 229.311 35.5136 237.233C34.4666 241.175 33.7587 245.25 33.0656 249.329L32.967 249.91C32.3047 253.812 31.6415 257.719 30.6926 261.627C29.4005 266.559 27.5372 271.312 25.6375 276.157C25.0404 277.68 24.4397 279.213 23.852 280.762C21.4185 287.18 19.2451 293.82 18.7718 300.954C15.5086 335.27 41.9935 364.059 75.3788 368.331C78.2143 368.723 81.1199 369.192 84.0573 369.665C88.615 370.401 93.2489 371.148 97.815 371.641C105.405 372.459 113.102 372.618 120.722 370.929L120.725 370.928C145.047 365.476 159.555 338.752 155.066 315.143C154.592 311.978 153.506 308.886 152.27 305.893C151.693 304.495 151.076 303.1 150.467 301.724L150.33 301.416C149.674 299.933 149.031 298.473 148.443 297.014C146.081 291.156 144.741 285.653 147.031 280.043C148.221 277.261 149.392 274.019 150.603 270.669C150.755 270.247 150.908 269.823 151.062 269.398C152.447 265.573 153.9 261.643 155.535 257.995C157.172 254.342 158.962 251.038 160.997 248.45C163.029 245.866 165.23 244.09 167.67 243.32C172.521 241.919 175.999 240.114 178.409 237.772C180.853 235.399 182.086 232.583 182.636 229.393C183.178 226.254 183.064 222.707 182.806 218.83C182.735 217.759 182.652 216.66 182.567 215.531C182.342 212.524 182.099 209.297 182.007 205.77C181.998 203.722 182.718 201.779 183.925 199.803C185.146 197.804 186.796 195.877 188.552 193.838L188.649 193.726C190.343 191.761 192.13 189.687 193.496 187.489C194.9 185.233 195.929 182.74 195.967 179.944ZM84.474 291.109L84.4675 291.113C82.6076 292.111 80.4065 291.727 79.1158 290.19L79.0578 290.121L78.992 290.059C76.4174 287.649 74.319 285.213 72.0824 282.392L72.08 282.389C69.8042 279.534 68.0173 276.573 68.2714 273.564C68.4224 271.868 69.2045 270.253 70.1457 268.381C70.4715 267.739 70.7946 267.096 71.1158 266.456L71.1177 266.452C71.4404 265.809 71.7614 265.17 72.0845 264.533L72.0869 264.529C72.8223 263.068 73.5978 261.653 74.5363 260.528C75.4652 259.414 76.4687 258.688 77.637 258.442C79.4569 258.064 81.5802 259.054 82.9172 260.787C84.2538 262.53 84.8695 264.831 85.1678 267.303C85.4726 269.837 85.4537 272.401 85.12 274.928L85.1197 274.93C85.0832 275.21 85.0398 275.51 84.9946 275.822C84.8876 276.561 84.7707 277.369 84.7126 278.137C84.6269 279.27 84.6469 280.5 85.0055 281.739C85.2459 282.584 85.6293 283.35 85.9444 283.98L85.9617 284.015C86.3019 284.695 86.5662 285.231 86.7267 285.783C87.2989 287.763 86.2941 290.143 84.474 291.109Z" fill="url(#paint0_linear_27_328)" stroke="black" stroke-width="3"/>
<defs>
<linearGradient id="paint0_linear_27_328" x1="107.234" y1="20" x2="107.234" y2="370.737" gradientUnits="userSpaceOnUse">
<stop stop-color="#00FF80"/>
<stop offset="0.5" stop-color="#00CC66"/>
<stop offset="1" stop-color="#00994D"/>
</linearGradient>
</defs>
</svg>
