<svg width="423" height="687" viewBox="0 0 423 687" fill="none" xmlns="http://www.w3.org/2000/svg">
<path d="M368 245C368 300.228 323.228 345 268 345C212.772 345 168 300.228 168 245C168 189.772 212.772 145 268 145C323.228 145 368 189.772 368 245Z" fill="url(#paint0_linear_27_310)" fill-opacity="0.75"/>
<path d="M403 520C403 602.843 335.843 670 253 670C170.157 670 103 602.843 103 520C103 437.157 170.157 370 253 370C335.843 370 403 437.157 403 520Z" fill="url(#paint1_linear_27_310)" fill-opacity="0.75"/>
<path d="M268 378C268 447.036 212.036 503 143 503C73.9644 503 18 447.036 18 378C18 308.964 73.9644 253 143 253C212.036 253 268 308.964 268 378Z" fill="url(#paint2_linear_27_310)" fill-opacity="0.75"/>
<path d="M248 115C248 156.421 214.421 190 173 190C131.579 190 98 156.421 98 115C98 73.5786 131.579 40 173 40C214.421 40 248 73.5786 248 115Z" fill="url(#paint3_linear_27_310)" fill-opacity="0.75"/>
<path d="M328 70C328 97.6142 305.614 120 278 120C250.386 120 228 97.6142 228 70C228 42.3858 250.386 20 278 20C305.614 20 328 42.3858 328 70Z" fill="url(#paint4_linear_27_310)" fill-opacity="0.75"/>
<path fill-rule="evenodd" clip-rule="evenodd" d="M246.172 147.389C253.198 145.825 260.503 145 268 145C323.228 145 368 189.772 368 245C368 299.97 323.646 344.581 268.774 344.997C268.516 344.999 268.258 345 268 345C266.516 345 265.04 344.968 263.572 344.904C264.029 346.573 264.452 348.257 264.841 349.953C266.016 355.076 266.875 360.319 267.399 365.66C267.563 367.337 267.694 369.024 267.792 370.72C269.479 370.885 271.159 371.079 272.83 371.299C346.3 381.003 403 443.88 403 520C403 602.843 335.843 670 253 670C170.157 670 103 602.843 103 520C103 513.932 103.36 507.947 104.061 502.068C104.262 500.382 104.49 498.706 104.746 497.038C103.131 496.519 101.53 495.969 99.9434 495.387C52.1212 477.841 18 431.905 18 378C18 308.964 73.9644 253 143 253C149.96 253 156.788 253.569 163.439 254.663C165.157 254.945 166.863 255.263 168.557 255.615C168.376 253.899 168.238 252.17 168.145 250.43C168.049 248.632 168 246.822 168 245C168 226.595 172.972 209.351 181.647 194.538C182.747 192.661 183.906 190.822 185.121 189.026C183 189.37 180.848 189.626 178.67 189.789C176.799 189.929 174.908 190 173 190C131.579 190 98 156.421 98 115C98 73.5786 131.579 40 173 40C192.656 40 210.545 47.5612 223.919 59.9337C225.445 61.3451 226.912 62.8191 228.316 64.3516C228.549 62.2772 228.909 60.2412 229.388 58.2515C234.673 36.3059 254.432 20 278 20C305.614 20 328 42.3858 328 70C328 97.6142 305.614 120 278 120C268.886 120 260.341 117.561 252.982 113.301C251.191 112.263 249.47 111.118 247.828 109.874C247.942 111.568 248 113.277 248 115C248 115.367 247.997 115.734 247.992 116.1C247.855 125.638 245.937 134.745 242.557 143.104C241.742 145.119 240.842 147.09 239.862 149.013C241.938 148.406 244.042 147.864 246.172 147.389ZM248.391 141.828C254.743 140.628 261.298 140 268 140C325.99 140 373 187.01 373 245C373 302.331 327.053 348.93 269.973 349.982C271.136 355.278 271.977 360.695 272.473 366.211C348.885 375.789 408 440.991 408 520C408 605.604 338.604 675 253 675C167.396 675 98 605.604 98 520C98 513.376 98.4155 506.85 99.2218 500.445C48.9626 482.473 13 434.436 13 378C13 306.203 71.203 248 143 248C149.835 248 156.547 248.527 163.097 249.544C163.032 248.037 163 246.522 163 245C163 226.88 167.59 209.833 175.67 194.956C174.784 194.985 173.893 195 173 195C128.817 195 93 159.183 93 115C93 70.8172 128.817 35 173 35C192.966 35 211.225 42.3146 225.241 54.4102C231.962 31.6274 253.039 15 278 15C308.376 15 333 39.6243 333 70C333 100.376 308.376 125 278 125C268.959 125 260.428 122.819 252.904 118.954C252.515 126.942 250.955 134.623 248.391 141.828Z" fill="black"/>
<defs>
<linearGradient id="paint0_linear_27_310" x1="210.5" y1="20" x2="210.5" y2="670" gradientUnits="userSpaceOnUse">
<stop stop-color="#E6E6E6"/>
<stop offset="0.5" stop-color="#80FFF9"/>
<stop offset="1" stop-color="#33FFF5"/>
</linearGradient>
<linearGradient id="paint1_linear_27_310" x1="210.5" y1="20" x2="210.5" y2="670" gradientUnits="userSpaceOnUse">
<stop stop-color="#E6E6E6"/>
<stop offset="0.5" stop-color="#80FFF9"/>
<stop offset="1" stop-color="#33FFF5"/>
</linearGradient>
<linearGradient id="paint2_linear_27_310" x1="210.5" y1="20" x2="210.5" y2="670" gradientUnits="userSpaceOnUse">
<stop stop-color="#E6E6E6"/>
<stop offset="0.5" stop-color="#80FFF9"/>
<stop offset="1" stop-color="#33FFF5"/>
</linearGradient>
<linearGradient id="paint3_linear_27_310" x1="210.5" y1="20" x2="210.5" y2="670" gradientUnits="userSpaceOnUse">
<stop stop-color="#E6E6E6"/>
<stop offset="0.5" stop-color="#80FFF9"/>
<stop offset="1" stop-color="#33FFF5"/>
</linearGradient>
<linearGradient id="paint4_linear_27_310" x1="210.5" y1="20" x2="210.5" y2="670" gradientUnits="userSpaceOnUse">
<stop stop-color="#E6E6E6"/>
<stop offset="0.5" stop-color="#80FFF9"/>
<stop offset="1" stop-color="#33FFF5"/>
</linearGradient>
</defs>
</svg>
