<svg width="1000" height="687" viewBox="0 0 1000 687" fill="none" xmlns="http://www.w3.org/2000/svg">
<mask id="path-1-outside-1_23_144" maskUnits="userSpaceOnUse" x="718.981" y="225.974" width="195" height="213" fill="black">
<rect fill="white" x="718.981" y="225.974" width="195" height="213"/>
<path d="M775.584 332.172C791.354 305.825 802.746 276.051 805.877 245.508C806.361 240.787 807.145 235.291 811.278 232.955C816.388 230.066 822.543 234.095 826.901 238.025C859.926 267.799 886.604 304.574 904.652 345.202C906.795 350.025 908.859 355.322 907.623 360.452C906.456 365.305 902.578 368.974 898.801 372.241C875.707 392.216 849.378 408.441 821.154 420.105C799.425 429.085 775.985 435.426 752.568 433.304C749.825 433.055 747.003 432.662 744.638 431.25C742.436 429.934 740.819 427.846 739.334 425.755C733.213 417.139 728.389 407.603 725.075 397.568C724.369 395.43 723.724 393.179 724.083 390.957C724.64 387.509 727.439 384.93 730.031 382.588C746.641 367.577 762.949 350.652 775.583 332.172"/>
</mask>
<path d="M775.584 332.172C791.354 305.825 802.746 276.051 805.877 245.508C806.361 240.787 807.145 235.291 811.278 232.955C816.388 230.066 822.543 234.095 826.901 238.025C859.926 267.799 886.604 304.574 904.652 345.202C906.795 350.025 908.859 355.322 907.623 360.452C906.456 365.305 902.578 368.974 898.801 372.241C875.707 392.216 849.378 408.441 821.154 420.105C799.425 429.085 775.985 435.426 752.568 433.304C749.825 433.055 747.003 432.662 744.638 431.25C742.436 429.934 740.819 427.846 739.334 425.755C733.213 417.139 728.389 407.603 725.075 397.568C724.369 395.43 723.724 393.179 724.083 390.957C724.64 387.509 727.439 384.93 730.031 382.588C746.641 367.577 762.949 350.652 775.583 332.172" fill="#FF6F61"/>
<path d="M771.294 329.604C769.876 331.973 770.647 335.044 773.016 336.462C775.385 337.88 778.456 337.109 779.874 334.74L771.294 329.604ZM805.877 245.508L800.903 244.998L800.903 244.998L805.877 245.508ZM811.278 232.955L813.738 237.308L813.739 237.308L811.278 232.955ZM826.901 238.025L823.553 241.738L823.553 241.738L826.901 238.025ZM904.652 345.202L909.222 343.172L909.222 343.172L904.652 345.202ZM907.623 360.452L902.762 359.282L902.762 359.283L907.623 360.452ZM898.801 372.241L902.072 376.023L902.073 376.023L898.801 372.241ZM821.154 420.105L823.064 424.726L823.064 424.726L821.154 420.105ZM752.568 433.304L752.116 438.283L752.117 438.283L752.568 433.304ZM744.638 431.25L742.074 435.542L742.074 435.542L744.638 431.25ZM739.334 425.755L743.411 422.86L743.41 422.859L739.334 425.755ZM725.075 397.568L720.327 399.136L720.327 399.136L725.075 397.568ZM724.083 390.957L719.147 390.159L719.147 390.16L724.083 390.957ZM730.031 382.588L726.678 378.878L726.678 378.878L730.031 382.588ZM779.71 334.993C781.269 332.714 780.684 329.602 778.404 328.044C776.125 326.486 773.013 327.07 771.455 329.35L779.71 334.993ZM779.874 334.74C795.935 307.907 807.63 277.437 810.851 246.018L800.903 244.998C797.861 274.665 786.773 303.743 771.294 329.604L779.874 334.74ZM810.851 246.018C811.094 243.647 811.372 241.613 811.939 239.958C812.487 238.36 813.122 237.656 813.738 237.308L808.817 228.602C805.302 230.59 803.478 233.802 802.479 236.716C801.5 239.574 801.144 242.648 800.903 244.998L810.851 246.018ZM813.739 237.308C814.457 236.902 815.526 236.746 817.444 237.547C819.406 238.366 821.543 239.926 823.553 241.738L830.249 234.311C827.9 232.194 824.781 229.774 821.299 228.319C817.772 226.846 813.209 226.12 808.817 228.603L813.739 237.308ZM823.553 241.738C856.058 271.043 882.319 307.245 900.083 347.232L909.222 343.172C890.889 301.904 863.795 264.555 830.249 234.311L823.553 241.738ZM900.083 347.232C902.298 352.219 903.549 356.015 902.762 359.282L912.484 361.623C914.169 354.628 911.292 347.831 909.222 343.172L900.083 347.232ZM902.762 359.283C902.018 362.375 899.424 365.091 895.53 368.46L902.073 376.023C905.732 372.857 910.893 368.236 912.485 361.622L902.762 359.283ZM895.531 368.46C872.843 388.082 846.973 404.025 819.245 415.484L823.064 424.726C851.783 412.858 878.572 396.349 902.072 376.023L895.531 368.46ZM819.245 415.484C797.847 424.327 775.279 430.341 753.019 428.324L752.117 438.283C776.69 440.51 801.003 433.843 823.064 424.726L819.245 415.484ZM753.02 428.324C750.283 428.076 748.497 427.731 747.203 426.957L742.074 435.542C745.508 437.594 749.367 438.034 752.116 438.283L753.02 428.324ZM747.203 426.957C745.992 426.234 744.897 424.953 743.411 422.86L735.258 428.65C736.741 430.739 738.879 433.633 742.074 435.542L747.203 426.957ZM743.41 422.859C737.578 414.65 732.98 405.561 729.823 396L720.327 399.136C723.798 409.644 728.848 419.628 735.258 428.651L743.41 422.859ZM729.823 396C729.1 393.812 728.877 392.634 729.019 391.754L719.147 390.16C718.572 393.724 719.638 397.049 720.327 399.136L729.823 396ZM729.019 391.754C729.247 390.343 730.487 388.916 733.383 386.297L726.678 378.878C724.392 380.945 720.034 384.674 719.147 390.159L729.019 391.754ZM733.383 386.297C750.147 371.148 766.769 353.925 779.71 334.993L771.455 329.35C759.129 347.38 743.135 364.007 726.678 378.878L733.383 386.297Z" fill="black" mask="url(#path-1-outside-1_23_144)"/>
</svg>
