<svg width="1000" height="687" viewBox="0 0 1000 687" fill="none" xmlns="http://www.w3.org/2000/svg">
<path d="M638.326 175.256C639.611 171.347 642.576 169.51 645.736 168.857C648.748 168.234 652.076 168.635 654.704 169.104L654.723 169.108C698.86 177.331 744.003 186.303 784.036 208.462C784.092 208.492 784.146 208.525 784.199 208.56C786.212 209.883 788.758 211.689 790.187 214.474L788.002 215.596L790.187 214.474C791.822 217.661 791.561 221.282 791.318 223.973L791.318 223.973C789.3 246.229 782.688 267.737 775.153 288.494L772.894 287.674L775.153 288.494C770.805 300.473 766.044 312.507 759.638 323.742L757.466 322.503L759.638 323.742C752.643 336.008 743.821 347.079 735.181 357.921L735.176 357.927C729.353 365.234 722.963 373.216 714.197 378.051C710.689 379.986 706.697 381.447 702.467 381.681C702.431 381.683 702.395 381.684 702.359 381.685C696.049 381.761 689.792 380.46 683.859 378.796C680.888 377.963 677.966 377.028 675.147 376.118C674.878 376.031 674.611 375.944 674.344 375.858C671.817 375.041 669.382 374.254 667.017 373.563C651.16 369.672 642.427 367.239 630.981 362.569M638.326 175.256C638.318 175.279 638.31 175.302 638.303 175.325C637.248 178.61 637.89 182.039 639.404 184.816L639.404 184.816C651.535 207.081 654.125 233.11 655.005 258.92L655.005 258.92C655.323 268.225 655.436 277.44 654.471 286.536C651.935 310.418 641.904 333.196 628.052 353.076L628.052 353.076C627.722 353.549 627.245 354.244 626.905 355.036C626.555 355.85 626.267 356.947 626.522 358.186L626.522 358.186C626.824 359.652 627.737 360.642 628.573 361.272C629.389 361.887 630.309 362.294 630.981 362.569M638.326 175.256C638.318 175.279 638.311 175.302 638.303 175.325C638.303 175.326 638.303 175.327 638.303 175.327L640.675 176.09M638.326 175.256L640.675 176.09M630.981 362.569L631.926 360.254M630.981 362.569C630.982 362.569 630.982 362.569 630.982 362.569L631.926 360.254M631.926 360.254C630.663 359.739 629.246 359.016 628.971 357.681C628.737 356.548 629.442 355.455 630.103 354.505C644.133 334.37 654.367 311.198 656.957 286.8C657.942 277.521 657.822 268.16 657.504 258.835C656.623 232.986 654.033 206.439 641.599 183.62C640.747 182.057 640.26 180.305 640.284 178.56C639.074 178.365 638.183 177.32 638.183 176.092V176.09H640.675M631.926 360.254L640.675 176.09" fill="#FF6F61" stroke="black" stroke-width="5" stroke-linecap="round" stroke-linejoin="round"/>
</svg>
