<svg width="1000" height="687" viewBox="0 0 1000 687" fill="none" xmlns="http://www.w3.org/2000/svg">
<path d="M748.765 648.125C748.542 644.415 745.869 641.61 744.139 639.796L744.123 639.779L744.123 639.779L733.131 628.25L722.139 616.722C715.499 609.757 708.98 602.909 703.504 595.281L703.504 595.281L746.27 648.276M748.765 648.125L746.27 648.276M748.765 648.125C748.765 648.125 748.765 648.125 748.765 648.125L746.27 648.276M748.765 648.125C748.99 651.858 746.846 654.578 744.377 656.361C741.926 658.131 738.832 659.248 736.169 659.883M746.27 648.276C746.578 653.385 740.571 656.264 735.589 657.451M736.169 659.883C736.169 659.883 736.169 659.883 736.169 659.883L735.589 657.451M736.169 659.883C711.207 665.832 685.261 665.117 660.046 664.303C653.347 664.087 646.04 663.691 639.238 662.045C632.414 660.394 625.914 657.442 620.975 651.981M736.169 659.883L735.589 657.451M735.589 657.451L620.975 651.981M620.975 651.981C620.975 651.981 620.975 651.981 620.975 651.981L622.829 650.304L620.975 651.981ZM674.177 557.423C676.451 557.329 678.351 558.278 679.815 559.432C681.292 560.596 682.497 562.1 683.429 563.399L674.177 557.423ZM674.177 557.423C674.131 557.424 674.084 557.425 674.037 557.428C671.728 557.566 669.79 558.813 668.524 559.628C668.49 559.649 668.457 559.671 668.424 559.692L668.424 559.692L668.413 559.699C665.786 561.408 663.185 563.126 660.594 564.838C649.243 572.338 638.091 579.706 625.888 585.517C625.856 585.532 625.824 585.548 625.793 585.564C618.715 589.311 611.295 594.535 607.699 602.479L674.177 557.423Z" fill="#FF6F61" stroke="black" stroke-width="5" stroke-linecap="round" stroke-linejoin="round"/>
</svg>
