<svg width="1000" height="687" viewBox="0 0 1000 687" fill="none" xmlns="http://www.w3.org/2000/svg">
<path d="M293.025 335.045C293.025 333.675 294.128 332.56 295.498 332.545C308.651 332.404 322.252 330.648 332.384 323.961C296.563 325.468 260.516 321.537 225.866 312.327L225.865 312.327C209.709 308.033 193.899 302.612 178.279 296.888C178.279 296.888 178.279 296.888 178.279 296.888L179.139 294.541C146.629 282.629 114.358 269.141 85.9071 249.415C83.4747 247.728 81.0734 245.998 78.6813 244.255L293.025 335.045ZM293.025 335.045V335.048C293.025 336.205 293.819 337.211 294.945 337.479C296.761 337.913 298.578 338.347 300.396 338.781C383.959 358.732 469.983 379.271 555.918 370.419C563.387 369.649 571.038 368.643 578.441 366.435L577.801 364.289L578.441 366.435C608.914 357.345 630.398 328.809 638.2 298.518C646.005 268.215 641.62 234.877 634.555 204.912C634.548 204.88 634.539 204.848 634.53 204.816C630.219 189.319 623.318 177.002 610.582 169.995C598.209 163.187 583.981 161.053 570.449 159.686L570.449 159.686C498.918 152.462 427.372 162.914 356.111 174.036C353.063 174.512 350.016 174.988 346.969 175.465C278.675 186.154 210.65 196.8 142.631 192.752L293.025 335.045ZM142.331 197.743C142.332 197.743 142.333 197.743 142.335 197.743L142.326 197.743L142.331 197.743Z" fill="black" stroke="black" stroke-width="5" stroke-linecap="round" stroke-linejoin="round"/>
<path d="M293.127 374.437C293.075 374.457 293.023 374.48 292.973 374.503C269.678 384.506 255.035 408.014 242.566 428.821C237.714 436.916 232.428 445.786 230.978 455.786C230.809 456.953 231.477 458.079 232.583 458.489C233.688 458.899 234.929 458.481 235.562 457.486C265.153 410.962 314.008 374.743 368.586 370.322C369.852 370.22 370.84 369.184 370.883 367.915C370.926 366.646 370.011 365.546 368.755 365.358C343.444 361.566 316.88 365.092 293.127 374.437Z" fill="black" stroke="black" stroke-width="5" stroke-linecap="round" stroke-linejoin="round"/>
<path d="M446.14 587.27L446.14 587.27C444.183 587.498 442.275 586.784 440.931 585.413L440.93 585.412C436.532 580.923 433.371 574.994 431.659 569.142L446.14 587.27ZM446.14 587.27C475.593 583.832 505.502 585.206 534.776 590.329C535.401 590.438 536.03 590.551 536.665 590.664C540.598 591.366 544.706 592.099 548.86 592.342L548.861 592.342C549.689 592.39 551.005 592.527 552.565 592.689C553.496 592.785 554.513 592.891 555.565 592.992C558.182 593.244 561.175 593.487 562.859 593.309C564.024 593.186 564.948 592.27 565.08 591.105C565.212 589.94 564.517 588.84 563.409 588.459C556.35 586.032 548.59 583.065 540.778 580.079L540.767 580.075C532.979 577.097 525.139 574.1 517.988 571.642L517.183 573.984M446.14 587.27L517.183 573.984M553.666 590.289C556.44 591.309 559.158 592.285 561.783 593.187L562.596 590.823M553.666 590.289L556.044 588.015C558.843 588.285 561.263 588.45 562.333 588.337L562.596 590.823M553.666 590.289C556.977 590.631 560.853 591.007 562.596 590.823M553.666 590.289L562.596 590.823M433.302 555.596L433.302 555.596C435.673 552.824 439.219 551.813 442.019 551.303L433.302 555.596ZM433.302 555.596C429.872 559.606 430.513 565.224 431.659 569.142L433.302 555.596ZM517.183 573.984L517.988 571.642C514.71 570.515 511.308 569.151 507.791 567.717C507.344 567.535 506.896 567.352 506.446 567.168C503.371 565.912 500.216 564.624 497.059 563.449C492.106 561.606 486.693 559.874 481.384 558.175C477.554 556.949 473.778 555.741 470.268 554.521C461.416 551.443 451.621 549.552 442.019 551.303L517.183 573.984Z" fill="black" stroke="black" stroke-width="5" stroke-linecap="round" stroke-linejoin="round"/>
<path d="M425.948 607.376L425.948 607.376C428.179 601.842 434.105 596.998 440.995 596.166C482.972 589.446 526.286 595.626 567.831 601.852L567.831 601.852L567.893 601.861C574.962 602.921 582.384 604.035 589.41 606.624L425.948 607.376ZM425.948 607.376C424.369 611.291 425.493 615.585 427.477 618.672C429.451 621.742 432.307 623.992 434.819 625.883M425.948 607.376L589.411 606.624L589.437 606.634C590.278 606.943 592.007 607.579 593.027 609.165L593.027 609.165C593.656 610.144 593.832 611.176 593.863 612.003C593.893 612.768 593.801 613.523 593.737 614.042L593.729 614.108C593.729 614.108 593.729 614.109 593.729 614.109C591.555 632.051 600.291 650.943 615.375 660.912C616.111 661.399 616.536 662.238 616.493 663.12C616.45 664.002 615.945 664.796 615.164 665.208C604.869 670.645 592.827 670.761 581.948 670.416C556.044 669.595 530.046 666.511 504.971 659.532C479.893 652.553 455.704 641.602 434.819 625.883M434.819 625.883L436.313 623.897L434.819 625.883Z" fill="black" stroke="black" stroke-width="5" stroke-linecap="round" stroke-linejoin="round"/>
<path d="M748.765 648.125C748.542 644.415 745.868 641.61 744.139 639.796L744.123 639.779L744.122 639.779L733.13 628.25L722.139 616.722C715.499 609.757 708.979 602.909 703.504 595.281L703.504 595.281L746.269 648.276M748.765 648.125L746.269 648.276M748.765 648.125C748.765 648.125 748.765 648.125 748.765 648.125L746.269 648.276M748.765 648.125C748.99 651.858 746.846 654.578 744.377 656.361C741.926 658.131 738.831 659.248 736.169 659.883M746.269 648.276C746.577 653.385 740.571 656.264 735.589 657.451M736.169 659.883C736.169 659.883 736.169 659.883 736.169 659.883L735.589 657.451M736.169 659.883C711.206 665.832 685.261 665.117 660.046 664.303C653.347 664.087 646.04 663.691 639.238 662.045C632.414 660.394 625.914 657.442 620.975 651.981M736.169 659.883L735.589 657.451M735.589 657.451L620.975 651.981M620.975 651.981C620.975 651.981 620.975 651.981 620.975 651.981L622.829 650.304L620.975 651.981ZM674.177 557.423C676.451 557.329 678.351 558.278 679.815 559.432C681.292 560.596 682.496 562.1 683.428 563.399L674.177 557.423ZM674.177 557.423C674.13 557.424 674.084 557.425 674.037 557.428C671.728 557.566 669.79 558.813 668.524 559.628C668.49 559.649 668.457 559.671 668.424 559.692L668.424 559.692L668.412 559.699C665.786 561.408 663.185 563.126 660.594 564.838C649.243 572.338 638.09 579.706 625.888 585.517C625.856 585.532 625.824 585.548 625.793 585.564C618.715 589.311 611.295 594.535 607.699 602.479L674.177 557.423Z" fill="black" stroke="black" stroke-width="5" stroke-linecap="round" stroke-linejoin="round"/>
<path d="M727.067 517.495L727.069 517.494C729.379 516.722 731.601 517.139 733.449 517.866C735.269 518.582 736.959 519.694 738.311 520.611L738.311 520.611C755.763 532.455 775.914 540.313 796.594 545.155C816.849 549.898 837.345 551.774 858.286 552.837C859.366 552.892 860.359 552.946 861.287 552.996C867.555 553.337 870.848 553.515 877.925 552.692C877.925 552.692 877.926 552.691 877.926 552.691L878.215 555.175C880.372 554.923 886.995 554.59 888.334 555.703L727.067 517.495ZM727.067 517.495C724.903 518.219 723.316 519.84 722.243 520.938C722.224 520.957 722.205 520.976 722.186 520.995C720.33 522.791 718.515 524.68 716.736 526.532C716.106 527.189 715.48 527.84 714.858 528.482C712.457 530.958 710.074 533.326 707.54 535.447C707.358 535.588 707.166 535.735 706.966 535.888C705.032 537.371 702.315 539.456 699.899 541.897C697.258 544.567 694.628 547.999 693.951 551.942C693.938 552.019 693.929 552.095 693.923 552.173C693.686 555.235 695.003 558.044 695.949 560.064L695.991 560.154C695.999 560.171 696.007 560.188 696.015 560.205L696.049 560.272C700.136 568.513 704.317 576.943 709.522 584.79C715.59 594.131 723.373 602.082 731.034 609.911C733.234 612.158 735.424 614.396 737.56 616.653C745.674 625.57 754.556 634.008 764.876 640.607L764.877 640.607C767.28 642.142 769.977 643.297 772.872 643.827L772.872 643.827M727.067 517.495L772.872 643.827M772.872 643.827C780.245 645.179 787.921 644.15 794.871 641.842M772.872 643.827L794.871 641.842M794.871 641.842C803.208 639.073 810.749 634.524 817.872 629.964C843.093 613.822 866.98 595.113 886.74 572.359L794.871 641.842Z" fill="black" stroke="black" stroke-width="5" stroke-linecap="round" stroke-linejoin="round"/>
<path d="M918.137 383.952L918.138 383.953C920.608 385.735 922.1 388.458 922.59 391.283C929.993 433.941 930.312 479.753 912.679 519.885C912.679 519.885 912.678 519.885 912.678 519.885L910.39 518.879C908.183 523.902 905.46 529.076 900.734 531.866L918.137 383.952ZM918.137 383.952C915.78 382.252 913.439 381.918 911.252 382.475C909.298 382.973 907.629 384.158 906.448 384.997L906.419 385.017C906.419 385.018 906.419 385.018 906.419 385.018C884.226 400.772 861.678 415.962 837.304 427.599C812.938 439.232 786.629 447.227 759.845 447.907L759.845 447.907M918.137 383.952L759.845 447.907M759.845 447.907C759.739 447.91 759.63 447.912 759.52 447.915C757.644 447.959 755.124 448.019 752.843 449.08L752.842 449.08M759.845 447.907L752.842 449.08M752.842 449.08C750.344 450.243 748.711 452.257 747.586 454.339C746.473 456.398 745.764 458.704 745.205 460.674C743.721 465.908 742.237 471.142 740.753 476.375L740.734 476.44C739.244 481.695 737.754 486.95 736.263 492.205L736.263 492.206M752.842 449.08L736.263 492.206M736.263 492.206L736.263 492.207M736.263 492.206L736.263 492.207M736.263 492.207C735.795 493.859 735.165 496.084 735.337 498.343L736.263 492.207ZM902.005 534.021C902.038 534.002 902.07 533.981 902.102 533.961L735.337 498.344C735.458 499.941 736.246 501.303 737.248 502.262C754.019 518.313 781.143 527.543 809.114 532.534C837.181 537.543 866.547 538.359 888.234 537.255L888.26 537.254C892.559 536.99 897.665 536.583 902.005 534.021Z" fill="black" stroke="black" stroke-width="5" stroke-linecap="round" stroke-linejoin="round"/>
<path d="M638.326 175.256C639.611 171.347 642.576 169.51 645.736 168.857C648.748 168.234 652.076 168.635 654.704 169.104L654.723 169.108C698.86 177.331 744.003 186.303 784.036 208.462C784.092 208.492 784.146 208.525 784.199 208.56C786.212 209.883 788.758 211.689 790.187 214.474L788.002 215.596L790.187 214.474C791.822 217.661 791.561 221.282 791.318 223.973L791.318 223.973C789.3 246.229 782.688 267.737 775.153 288.494L772.894 287.674L775.153 288.494C770.805 300.473 766.044 312.507 759.638 323.742L757.466 322.503L759.638 323.742C752.643 336.008 743.821 347.079 735.181 357.921L735.176 357.927C729.353 365.234 722.963 373.216 714.197 378.051C710.689 379.986 706.697 381.447 702.467 381.681C702.431 381.683 702.395 381.684 702.359 381.685C696.049 381.761 689.792 380.46 683.859 378.796C680.888 377.963 677.966 377.028 675.147 376.118C674.878 376.031 674.611 375.944 674.344 375.858C671.817 375.041 669.382 374.254 667.017 373.563C651.161 369.672 642.427 367.239 630.982 362.569M638.326 175.256C638.318 175.279 638.31 175.302 638.303 175.325C637.248 178.61 637.89 182.039 639.404 184.816L639.404 184.816C651.535 207.081 654.126 233.11 655.005 258.92L655.005 258.92C655.323 268.225 655.437 277.44 654.471 286.536C651.936 310.418 641.904 333.196 628.052 353.076L628.052 353.076C627.723 353.549 627.245 354.244 626.905 355.036C626.555 355.85 626.267 356.947 626.522 358.186L626.522 358.186C626.824 359.652 627.737 360.642 628.573 361.272C629.389 361.887 630.309 362.294 630.982 362.569M638.326 175.256C638.318 175.279 638.311 175.302 638.303 175.325C638.303 175.326 638.303 175.327 638.303 175.327L640.675 176.09M638.326 175.256L640.675 176.09M630.982 362.569L631.926 360.254M630.982 362.569C630.982 362.569 630.982 362.569 630.982 362.569L631.926 360.254M631.926 360.254C630.663 359.739 629.246 359.016 628.971 357.681C628.737 356.548 629.442 355.455 630.103 354.505C644.133 334.37 654.367 311.198 656.957 286.8C657.942 277.521 657.822 268.16 657.504 258.835C656.623 232.986 654.033 206.439 641.599 183.62C640.747 182.057 640.26 180.305 640.284 178.56C639.074 178.365 638.183 177.32 638.183 176.092V176.09H640.675M631.926 360.254L640.675 176.09" fill="black" stroke="black" stroke-width="5" stroke-linecap="round" stroke-linejoin="round"/>
<mask id="path-9-outside-1_23_274" maskUnits="userSpaceOnUse" x="718.981" y="225.974" width="195" height="213" fill="black">
<rect fill="white" x="718.981" y="225.974" width="195" height="213"/>
<path d="M775.584 332.172C791.354 305.825 802.746 276.051 805.877 245.509C806.361 240.787 807.145 235.291 811.278 232.955C816.388 230.066 822.543 234.095 826.901 238.025C859.926 267.799 886.604 304.574 904.652 345.202C906.795 350.025 908.859 355.322 907.623 360.453C906.456 365.306 902.578 368.974 898.801 372.241C875.707 392.216 849.378 408.442 821.154 420.105C799.425 429.085 775.985 435.426 752.568 433.304C749.825 433.055 747.003 432.662 744.638 431.25C742.436 429.934 740.819 427.846 739.334 425.755C733.213 417.139 728.389 407.603 725.075 397.568C724.369 395.431 723.724 393.179 724.083 390.957C724.64 387.509 727.439 384.93 730.031 382.588C746.641 367.578 762.949 350.653 775.583 332.172"/>
</mask>
<path d="M775.584 332.172C791.354 305.825 802.746 276.051 805.877 245.509C806.361 240.787 807.145 235.291 811.278 232.955C816.388 230.066 822.543 234.095 826.901 238.025C859.926 267.799 886.604 304.574 904.652 345.202C906.795 350.025 908.859 355.322 907.623 360.453C906.456 365.306 902.578 368.974 898.801 372.241C875.707 392.216 849.378 408.442 821.154 420.105C799.425 429.085 775.985 435.426 752.568 433.304C749.825 433.055 747.003 432.662 744.638 431.25C742.436 429.934 740.819 427.846 739.334 425.755C733.213 417.139 728.389 407.603 725.075 397.568C724.369 395.431 723.724 393.179 724.083 390.957C724.64 387.509 727.439 384.93 730.031 382.588C746.641 367.578 762.949 350.653 775.583 332.172" fill="black"/>
<path d="M771.294 329.604C769.876 331.973 770.647 335.044 773.016 336.462C775.385 337.88 778.456 337.109 779.874 334.74L771.294 329.604ZM805.877 245.509L800.903 244.999L800.903 244.999L805.877 245.509ZM811.278 232.955L813.738 237.308L813.739 237.308L811.278 232.955ZM826.901 238.025L823.553 241.738L823.553 241.738L826.901 238.025ZM904.652 345.202L909.222 343.172L909.222 343.172L904.652 345.202ZM907.623 360.453L902.762 359.282L902.762 359.283L907.623 360.453ZM898.801 372.241L902.072 376.023L902.073 376.023L898.801 372.241ZM821.154 420.105L823.064 424.726L823.064 424.726L821.154 420.105ZM752.568 433.304L752.116 438.284L752.117 438.284L752.568 433.304ZM744.638 431.25L742.074 435.542L742.074 435.542L744.638 431.25ZM739.334 425.755L743.411 422.86L743.41 422.859L739.334 425.755ZM725.075 397.568L720.327 399.136L720.327 399.136L725.075 397.568ZM724.083 390.957L719.147 390.16L719.147 390.16L724.083 390.957ZM730.031 382.588L726.678 378.878L726.678 378.879L730.031 382.588ZM779.71 334.993C781.269 332.714 780.684 329.602 778.404 328.044C776.125 326.486 773.013 327.07 771.455 329.35L779.71 334.993ZM779.874 334.74C795.935 307.907 807.63 277.437 810.851 246.019L800.903 244.999C797.861 274.665 786.773 303.743 771.294 329.604L779.874 334.74ZM810.851 246.019C811.094 243.647 811.372 241.613 811.939 239.958C812.487 238.36 813.122 237.657 813.738 237.308L808.817 228.603C805.302 230.59 803.478 233.803 802.479 236.717C801.5 239.574 801.144 242.649 800.903 244.999L810.851 246.019ZM813.739 237.308C814.457 236.902 815.526 236.746 817.444 237.547C819.406 238.366 821.543 239.926 823.553 241.738L830.249 234.311C827.9 232.194 824.781 229.775 821.299 228.32C817.772 226.846 813.209 226.12 808.817 228.603L813.739 237.308ZM823.553 241.738C856.058 271.043 882.319 307.245 900.083 347.232L909.222 343.172C890.889 301.904 863.795 264.555 830.249 234.311L823.553 241.738ZM900.083 347.232C902.298 352.219 903.549 356.015 902.762 359.282L912.484 361.623C914.169 354.628 911.292 347.832 909.222 343.172L900.083 347.232ZM902.762 359.283C902.018 362.375 899.424 365.091 895.53 368.46L902.073 376.023C905.732 372.857 910.893 368.236 912.485 361.622L902.762 359.283ZM895.531 368.46C872.843 388.083 846.973 404.025 819.245 415.484L823.064 424.726C851.783 412.858 878.572 396.349 902.072 376.023L895.531 368.46ZM819.245 415.484C797.847 424.327 775.279 430.342 753.019 428.324L752.117 438.284C776.69 440.51 801.003 433.843 823.064 424.726L819.245 415.484ZM753.02 428.324C750.283 428.076 748.497 427.731 747.203 426.957L742.074 435.542C745.508 437.594 749.367 438.034 752.116 438.284L753.02 428.324ZM747.203 426.958C745.992 426.234 744.897 424.953 743.411 422.86L735.258 428.65C736.741 430.739 738.879 433.633 742.074 435.542L747.203 426.958ZM743.41 422.859C737.578 414.65 732.98 405.561 729.823 396L720.327 399.136C723.798 409.645 728.848 419.629 735.258 428.651L743.41 422.859ZM729.823 396C729.1 393.812 728.877 392.634 729.019 391.754L719.147 390.16C718.572 393.725 719.638 397.049 720.327 399.136L729.823 396ZM729.019 391.755C729.247 390.343 730.487 388.916 733.383 386.297L726.678 378.879C724.392 380.945 720.034 384.674 719.147 390.16L729.019 391.755ZM733.383 386.298C750.147 371.148 766.769 353.925 779.71 334.993L771.455 329.35C759.129 347.381 743.135 364.007 726.678 378.878L733.383 386.298Z" fill="black" mask="url(#path-9-outside-1_23_274)"/>
<path d="M332.715 469.57C332.569 469.893 332.494 470.244 332.494 470.598V470.599C332.494 471.692 333.202 472.657 334.244 472.985C335.286 473.312 336.42 472.925 337.045 472.029C352.737 449.516 371.232 431.152 393.613 415.215C415.934 399.32 441.786 388.133 468.843 384.658C470.117 384.494 471.059 383.392 471.024 382.109C470.988 380.825 469.986 379.777 468.705 379.685C438.446 377.498 406.462 383.187 381.599 401.209C358.969 417.612 343.941 444.686 332.715 469.57Z" fill="black" stroke="black" stroke-width="5" stroke-linecap="round" stroke-linejoin="round"/>
<path d="M440.303 473.023C440.05 474.23 440.715 475.441 441.87 475.875C443.024 476.31 444.322 475.837 444.928 474.763C463.198 442.363 494.067 418.253 528.07 402.394L527.139 400.398L528.07 402.394C543.082 395.392 558.955 390.028 575.114 390.208C576.417 390.223 577.512 389.234 577.631 387.937C577.751 386.64 576.854 385.468 575.57 385.245C564.481 383.317 553.175 384.041 542.337 384.739C542.337 384.739 542.337 384.739 542.337 384.739L542.272 384.743C537.195 385.069 531.845 385.413 526.623 386.656C522.014 387.752 517.632 389.519 513.468 391.2L513.468 391.2C505.647 394.358 497.63 397.613 490.117 401.903L490.117 401.903C464.172 416.719 446.384 443.984 440.303 473.023Z" fill="black" stroke="black" stroke-width="5" stroke-linecap="round" stroke-linejoin="round"/>
<path d="M176.575 321.729C177.849 321.504 178.742 320.343 178.632 319.054C178.522 317.764 177.445 316.772 176.151 316.766C160.149 316.701 131.707 314.125 103.023 296.921L101.79 298.978L103.023 296.921C98.4128 294.157 85.2766 286.275 72.4367 273.372C59.5906 260.462 47.1869 242.672 43.7983 220.109C43.6749 219.285 43.0949 215.288 42.936 210.189L40.4373 210.267L42.936 210.189C41.963 178.958 56.3938 148.432 80.7787 122.085C105.156 95.7456 139.344 73.7485 177.452 59.6575L177.452 59.6575C182.743 57.7004 187.987 56.3121 192.322 55.1643C193.968 54.7285 195.483 54.3273 196.82 53.9429C271.621 32.4391 366.254 36.3472 431.394 43.5352C462.614 46.9798 587.415 63.2355 800.171 129.183C850.286 144.718 892.65 159.536 922.556 170.3C931.643 173.57 939.542 176.452 946.178 178.874C950.491 180.448 954.27 181.827 957.497 182.992C961.563 184.46 964.737 185.583 966.918 186.296C967.998 186.65 968.891 186.921 969.547 187.083C969.857 187.159 970.219 187.239 970.561 187.27C970.712 187.284 971.029 187.307 971.396 187.243C971.589 187.209 972.867 186.977 973.379 185.619L973.379 185.619C973.738 184.668 973.422 183.873 973.274 183.572C973.108 183.238 972.905 183.006 972.801 182.894C972.579 182.655 972.333 182.466 972.167 182.345C971.803 182.08 971.32 181.783 970.776 181.47C969.664 180.831 968.03 179.975 965.924 178.93C961.7 176.834 955.443 173.911 947.357 170.322C931.177 163.141 907.614 153.27 878.219 141.983C819.43 119.409 737.275 91.1557 644.169 67.4315C643.468 67.2528 642.73 67.0646 641.956 66.8672C617.09 60.5232 555.158 44.7233 481.39 33.1006C405.374 21.1238 316.563 13.5436 242.707 25.4289L243.104 27.8972L242.707 25.4289C240.412 25.7983 237.868 26.1788 235.098 26.593C211.668 30.097 172.103 36.0141 130.986 57.9929C102.468 73.2372 73.4954 96.4946 53.307 124.94C33.1061 153.403 21.6048 187.215 28.4305 223.384C35.0837 258.645 55.9057 280.045 67.2723 289.448L68.8658 287.522L67.2724 289.448C89.8767 308.146 115.023 316.59 135.541 320.178C156.022 323.759 172.043 322.527 176.575 321.729Z" fill="black" stroke="black" stroke-width="5" stroke-miterlimit="10" stroke-linecap="round" stroke-linejoin="round"/>
</svg>
