<svg width="1000" height="687" viewBox="0 0 1000 687" fill="none" xmlns="http://www.w3.org/2000/svg">
<path d="M293.025 335.045C293.025 333.675 294.128 332.56 295.498 332.545C308.651 332.404 322.252 330.648 332.384 323.961C296.563 325.468 260.516 321.536 225.866 312.327L225.865 312.327C209.709 308.032 193.899 302.612 178.279 296.888C178.279 296.888 178.279 296.888 178.279 296.888L179.139 294.541C146.629 282.629 114.358 269.141 85.9071 249.415C83.4747 247.728 81.0735 245.998 78.6814 244.255L293.025 335.045ZM293.025 335.045V335.047C293.025 336.205 293.819 337.211 294.945 337.479C296.761 337.913 298.578 338.346 300.396 338.781C383.959 358.732 469.983 379.271 555.918 370.419C563.387 369.649 571.038 368.643 578.441 366.435L577.801 364.289L578.442 366.435C608.914 357.345 630.398 328.809 638.2 298.518C646.005 268.215 641.62 234.877 634.555 204.912C634.548 204.88 634.539 204.848 634.53 204.816C630.219 189.318 623.318 177.002 610.582 169.995C598.209 163.187 583.981 161.053 570.449 159.686L570.449 159.686C498.918 152.462 427.372 162.913 356.111 174.036C353.063 174.511 350.016 174.988 346.969 175.465C278.675 186.153 210.65 196.8 142.631 192.752L293.025 335.045ZM142.331 197.743C142.332 197.743 142.334 197.743 142.335 197.743L142.326 197.743L142.331 197.743Z" fill="#FF6F61" stroke="black" stroke-width="5" stroke-linecap="round" stroke-linejoin="round"/>
<path d="M244.625 212.015C231.734 212.015 221.282 222.461 221.282 235.334C221.282 248.207 231.734 258.667 244.625 258.667C257.517 258.667 267.956 248.22 267.956 235.334C267.956 222.448 257.504 212.015 244.625 212.015ZM235.961 243.994C231.173 243.994 227.297 240.121 227.297 235.334C227.297 230.548 231.173 226.674 235.961 226.674C240.75 226.674 244.625 230.561 244.625 235.334C244.625 240.108 240.737 243.994 235.961 243.994Z" fill="black"/>
<path d="M244.394 237.326C245.494 232.672 242.61 228.007 237.953 226.908C233.296 225.809 228.629 228.692 227.53 233.347C226.43 238.002 229.314 242.666 233.971 243.765C238.628 244.864 243.295 241.981 244.394 237.326Z" fill="white"/>
<path d="M293.127 374.437C293.075 374.457 293.023 374.48 292.973 374.503C269.678 384.506 255.035 408.014 242.566 428.821C237.714 436.916 232.428 445.786 230.978 455.786C230.809 456.953 231.477 458.079 232.583 458.489C233.688 458.899 234.929 458.481 235.562 457.486C265.153 410.962 314.008 374.743 368.586 370.322C369.852 370.22 370.84 369.184 370.883 367.915C370.926 366.646 370.011 365.546 368.755 365.358C343.444 361.566 316.88 365.092 293.127 374.437Z" fill="#FF6F61" stroke="black" stroke-width="5" stroke-linecap="round" stroke-linejoin="round"/>
<path d="M332.715 469.57C332.569 469.893 332.494 470.244 332.494 470.598V470.6C332.494 471.692 333.202 472.657 334.244 472.985C335.286 473.312 336.42 472.925 337.045 472.029C352.737 449.516 371.232 431.152 393.613 415.215C415.934 399.32 441.786 388.134 468.843 384.658C470.117 384.494 471.059 383.392 471.024 382.109C470.988 380.825 469.986 379.777 468.705 379.685C438.446 377.498 406.462 383.187 381.599 401.209C358.969 417.612 343.941 444.687 332.715 469.57Z" fill="#FF6F61" stroke="black" stroke-width="5" stroke-linecap="round" stroke-linejoin="round"/>
<path d="M440.303 473.023C440.05 474.23 440.715 475.441 441.87 475.875C443.024 476.31 444.322 475.837 444.928 474.763C463.198 442.363 494.067 418.253 528.07 402.394L527.139 400.398L528.07 402.394C543.082 395.392 558.955 390.028 575.114 390.208C576.417 390.223 577.512 389.234 577.631 387.937C577.751 386.64 576.854 385.468 575.57 385.245C564.481 383.317 553.175 384.041 542.337 384.739C542.337 384.739 542.337 384.739 542.337 384.739L542.272 384.743C537.195 385.069 531.845 385.413 526.623 386.656C522.014 387.752 517.632 389.519 513.468 391.2L513.468 391.2C505.647 394.358 497.63 397.613 490.117 401.903L490.117 401.903C464.172 416.719 446.384 443.984 440.303 473.023Z" fill="#FF6F61" stroke="black" stroke-width="5" stroke-linecap="round" stroke-linejoin="round"/>
<path d="M176.575 321.729C177.849 321.504 178.742 320.343 178.632 319.054C178.522 317.764 177.445 316.772 176.151 316.766C160.149 316.701 131.707 314.125 103.023 296.921L101.79 298.978L103.023 296.921C98.4128 294.157 85.2766 286.275 72.4367 273.372C59.5906 260.462 47.1869 242.672 43.7983 220.109C43.6749 219.285 43.0949 215.288 42.936 210.189L40.4373 210.267L42.936 210.189C41.963 178.958 56.3938 148.432 80.7787 122.085C105.156 95.7456 139.344 73.7485 177.452 59.6575L177.452 59.6575C182.743 57.7004 187.987 56.3121 192.322 55.1643C193.968 54.7285 195.483 54.3273 196.82 53.9429C271.621 32.4391 366.254 36.3472 431.394 43.5352C462.614 46.9798 587.415 63.2355 800.171 129.183C850.286 144.718 892.65 159.536 922.556 170.3C931.643 173.57 939.542 176.452 946.178 178.874C950.491 180.448 954.27 181.827 957.497 182.992C961.563 184.46 964.737 185.583 966.918 186.296C967.998 186.65 968.891 186.921 969.547 187.083C969.857 187.159 970.219 187.239 970.561 187.27C970.712 187.284 971.029 187.307 971.396 187.243C971.589 187.209 972.867 186.977 973.379 185.619L973.379 185.619C973.738 184.668 973.422 183.873 973.274 183.572C973.108 183.238 972.905 183.006 972.801 182.894C972.579 182.655 972.333 182.466 972.167 182.345C971.803 182.08 971.32 181.783 970.776 181.47C969.664 180.831 968.03 179.975 965.924 178.93C961.7 176.834 955.443 173.911 947.357 170.322C931.177 163.141 907.614 153.27 878.219 141.983C819.43 119.409 737.275 91.1557 644.169 67.4315C643.468 67.2528 642.73 67.0646 641.956 66.8672C617.09 60.5232 555.158 44.7233 481.39 33.1006C405.374 21.1238 316.563 13.5436 242.707 25.4289L243.104 27.8972L242.707 25.4289C240.412 25.7983 237.868 26.1788 235.098 26.593C211.668 30.097 172.103 36.0141 130.986 57.9929C102.468 73.2372 73.4954 96.4946 53.307 124.94C33.1061 153.403 21.6048 187.215 28.4305 223.384C35.0837 258.645 55.9057 280.045 67.2723 289.448L68.8658 287.522L67.2724 289.448C89.8767 308.146 115.023 316.59 135.541 320.178C156.022 323.759 172.043 322.527 176.575 321.729Z" fill="#FF6F61" stroke="black" stroke-width="5" stroke-miterlimit="10" stroke-linecap="round" stroke-linejoin="round"/>
</svg>
