<svg width="1000" height="687" viewBox="0 0 1000 687" fill="none" xmlns="http://www.w3.org/2000/svg">
<path d="M727.067 517.495L727.068 517.494C729.379 516.722 731.601 517.139 733.448 517.866C735.269 518.582 736.958 519.694 738.311 520.611L738.311 520.611C755.763 532.455 775.914 540.313 796.594 545.155C816.848 549.898 837.345 551.774 858.286 552.837C859.366 552.892 860.359 552.946 861.286 552.996C867.554 553.337 870.848 553.515 877.925 552.692C877.925 552.692 877.926 552.691 877.926 552.691L878.215 555.175C880.372 554.923 886.995 554.59 888.334 555.703L727.067 517.495ZM727.067 517.495C724.903 518.219 723.316 519.84 722.243 520.938C722.224 520.957 722.205 520.976 722.186 520.995C720.33 522.791 718.515 524.68 716.736 526.532C716.106 527.189 715.48 527.84 714.858 528.482C712.457 530.958 710.074 533.326 707.54 535.447C707.358 535.588 707.166 535.735 706.966 535.888C705.032 537.371 702.315 539.456 699.899 541.897C697.258 544.567 694.628 547.999 693.951 551.942C693.938 552.019 693.928 552.095 693.923 552.173C693.686 555.235 695.002 558.044 695.949 560.064L695.991 560.154C695.999 560.171 696.007 560.188 696.015 560.205L696.049 560.272C700.136 568.513 704.317 576.943 709.521 584.79C715.59 594.131 723.372 602.082 731.034 609.911C733.234 612.158 735.424 614.396 737.56 616.653C745.674 625.57 754.556 634.008 764.876 640.607L764.877 640.607C767.28 642.142 769.977 643.297 772.872 643.827L772.872 643.827M727.067 517.495L772.872 643.827M772.872 643.827C780.245 645.179 787.921 644.15 794.87 641.842M772.872 643.827L794.87 641.842M794.87 641.842C803.208 639.073 810.749 634.524 817.872 629.964C843.093 613.822 866.98 595.113 886.74 572.359L794.87 641.842Z" fill="#FF6F61" stroke="black" stroke-width="5" stroke-linecap="round" stroke-linejoin="round"/>
</svg>
