<svg width="1000" height="687" viewBox="0 0 1000 687" fill="none" xmlns="http://www.w3.org/2000/svg">
<path d="M918.137 383.952L918.138 383.953C920.608 385.735 922.099 388.458 922.589 391.283C929.993 433.941 930.312 479.753 912.678 519.885C912.678 519.885 912.678 519.885 912.678 519.885L910.39 518.879C908.183 523.902 905.46 529.076 900.734 531.866L918.137 383.952ZM918.137 383.952C915.78 382.252 913.439 381.918 911.252 382.475C909.298 382.973 907.629 384.158 906.448 384.997L906.419 385.017C906.419 385.018 906.419 385.018 906.418 385.018C884.226 400.772 861.678 415.962 837.303 427.599C812.938 439.232 786.629 447.227 759.845 447.907L759.845 447.907M918.137 383.952L759.845 447.907M759.845 447.907C759.739 447.91 759.63 447.912 759.52 447.915C757.644 447.959 755.124 448.019 752.843 449.08L752.842 449.08M759.845 447.907L752.842 449.08M752.842 449.08C750.344 450.243 748.71 452.257 747.586 454.339C746.473 456.398 745.764 458.704 745.205 460.674C743.721 465.908 742.237 471.142 740.753 476.375L740.734 476.44C739.244 481.695 737.753 486.95 736.263 492.205L736.263 492.206M752.842 449.08L736.263 492.206M736.263 492.206L736.263 492.207M736.263 492.206L736.263 492.207M736.263 492.207C735.795 493.859 735.165 496.084 735.337 498.343L736.263 492.207ZM902.005 534.021C902.037 534.002 902.07 533.981 902.102 533.961L735.337 498.344C735.458 499.941 736.246 501.303 737.248 502.262C754.018 518.313 781.142 527.543 809.114 532.534C837.181 537.543 866.547 538.359 888.234 537.255L888.26 537.254C892.559 536.99 897.665 536.583 902.005 534.021Z" fill="#FF6F61" stroke="black" stroke-width="5" stroke-linecap="round" stroke-linejoin="round"/>
</svg>
